<?xml version="1.0" standalone="no"?>
<!DOCTYPE svg PUBLIC "-//W3C//DTD SVG 20010904//EN"
 "http://www.w3.org/TR/2001/REC-SVG-20010904/DTD/svg10.dtd">
<svg version="1.0" xmlns="http://www.w3.org/2000/svg"
 width="736.000000pt" height="414.000000pt" viewBox="0 0 736.000000 414.000000"
 preserveAspectRatio="xMidYMid meet">

<g transform="translate(0.000000,414.000000) scale(0.100000,-0.100000)"
fill="#000000" stroke="none">
<path d="M3460 3933 c-255 -32 -533 -129 -755 -261 -615 -366 -973 -1087 -894
-1800 89 -814 685 -1466 1499 -1640 115 -24 143 -26 365 -27 212 0 253 3 354
23 835 169 1436 830 1522 1674 38 376 -66 819 -269 1146 -231 372 -580 651
-988 792 -211 73 -326 92 -579 95 -121 2 -236 1 -255 -2z m142 -128 c3 -4 -28
-81 -69 -173 -230 -513 -344 -767 -420 -940 -47 -106 -90 -189 -94 -185 -5 5
-35 67 -67 138 l-58 130 -112 3 -112 3 -38 -83 c-20 -45 -138 -310 -262 -588
l-226 -505 -71 -3 -72 -3 -12 43 c-79 296 -67 668 32 970 42 130 156 355 236
468 88 123 282 317 403 402 246 174 562 294 835 317 50 5 93 9 96 10 3 0 8 -1
11 -4z m298 -10 c165 -16 385 -82 560 -170 520 -261 879 -765 950 -1338 18
-145 8 -425 -20 -557 -12 -58 -27 -111 -32 -117 -6 -8 -35 -13 -75 -13 l-64 0
-36 78 c-32 71 -278 620 -428 957 l-62 140 -114 2 -114 3 -60 -136 c-33 -74
-64 -136 -68 -137 -5 -1 -32 52 -61 118 -50 112 -304 682 -456 1020 -37 83
-65 153 -63 158 2 4 21 5 41 2 20 -2 66 -7 102 -10z m20 -692 c129 -290 236
-533 238 -540 3 -11 -85 -13 -477 -13 -265 0 -481 3 -481 8 0 12 474 1072 480
1072 3 0 111 -237 240 -527z m-1041 -614 l71 -161 -77 -174 -77 -174 -168 0
c-92 0 -168 3 -168 6 0 4 66 154 147 335 184 413 168 403 272 168z m1868 -157
c78 -174 145 -325 148 -334 7 -17 -5 -18 -162 -18 l-170 0 -77 174 -78 174 57
129 c32 70 64 143 71 161 11 25 20 32 42 32 26 0 33 -13 169 -318z m-503 43
c10 -24 15 -53 12 -62 -3 -10 -75 -173 -160 -363 l-154 -345 -92 -3 -91 -3 3
-62 3 -62 220 0 220 0 3 63 3 62 -55 0 c-30 0 -57 4 -60 9 -3 5 18 61 46 125
l52 117 144 -3 143 -3 33 -75 c18 -41 90 -202 160 -358 69 -156 126 -285 126
-287 0 -3 -65 -5 -145 -5 l-145 0 0 -65 0 -65 267 -2 266 -3 -58 -68 c-225
-266 -589 -475 -963 -554 -115 -24 -147 -27 -342 -27 -194 0 -227 3 -341 27
-365 77 -689 257 -934 520 -47 50 -85 95 -85 99 0 4 119 8 265 8 l265 0 0 65
0 65 -146 0 c-137 0 -145 1 -139 19 3 10 75 173 159 362 l154 344 141 3 142 3
54 -117 c30 -63 55 -120 55 -125 0 -5 -27 -9 -60 -9 l-61 0 3 -62 3 -63 220 0
220 0 3 62 3 62 -92 3 -92 3 -158 355 c-88 194 -159 360 -159 367 0 7 7 31 16
53 l16 40 548 0 547 0 17 -45z m-1144 -386 c0 -5 -36 -9 -80 -9 -44 0 -80 2
-80 4 0 2 19 43 41 92 l42 89 38 -84 c22 -46 39 -87 39 -92z m1283 76 l36 -80
-76 -3 c-41 -2 -78 0 -81 2 -3 3 12 44 33 91 21 47 41 82 45 78 4 -4 24 -44
43 -88z m-1653 -223 c0 -4 -71 -167 -158 -362 l-159 -355 -96 -3 -97 -3 -36
56 c-42 66 -120 228 -130 268 l-6 27 181 0 181 0 0 65 0 65 -53 0 c-30 0 -56
3 -59 6 -7 6 5 36 62 160 l39 84 165 0 c91 0 166 -3 166 -8z m2286 -112 c28
-63 49 -118 47 -122 -2 -5 -29 -8 -59 -8 l-54 0 0 -65 0 -65 181 0 181 0 -7
-27 c-9 -37 -97 -216 -135 -276 l-30 -48 -98 3 -97 3 -157 350 c-86 193 -157
356 -157 363 -1 10 36 12 166 10 l167 -3 52 -115z"/>
</g>
</svg>
